<mxfile host="app.diagrams.net" agent="Mozilla/5.0 (Windows NT 10.0; Win64; x64) AppleWebKit/537.36 (KHTML, like Gecko) Chrome/128.0.0.0 Safari/537.36" version="24.7.16">
  <diagram name="Página-1" id="VdpHvxICLSemq1O2z0Ug">
    <mxGraphModel grid="1" page="1" gridSize="10" guides="1" tooltips="1" connect="1" arrows="1" fold="1" pageScale="1" pageWidth="827" pageHeight="1169" math="0" shadow="0">
      <root>
        <mxCell id="0" />
        <mxCell id="1" parent="0" />
        <mxCell id="tmd_BGIo7YK0RF10_p9E-31" value="&lt;font style=&quot;font-size: 18px;&quot;&gt;Sistema de estacionamento teste&lt;/font&gt;" style="swimlane;whiteSpace=wrap;html=1;movable=1;resizable=1;rotatable=1;deletable=1;editable=1;locked=0;connectable=1;" vertex="1" parent="1">
          <mxGeometry x="-30" y="-90" width="770" height="1450" as="geometry" />
        </mxCell>
        <mxCell id="tmd_BGIo7YK0RF10_p9E-50" value="&lt;font style=&quot;font-size: 18px;&quot;&gt;Dirigir até cancela de saída&lt;/font&gt;" style="ellipse;whiteSpace=wrap;html=1;" vertex="1" parent="tmd_BGIo7YK0RF10_p9E-31">
          <mxGeometry x="110" y="840" width="150" height="110" as="geometry" />
        </mxCell>
        <mxCell id="tmd_BGIo7YK0RF10_p9E-52" value="&lt;font style=&quot;font-size: 18px;&quot;&gt;Registrar saída&lt;/font&gt;" style="ellipse;whiteSpace=wrap;html=1;" vertex="1" parent="tmd_BGIo7YK0RF10_p9E-31">
          <mxGeometry x="490" y="920" width="150" height="110" as="geometry" />
        </mxCell>
        <mxCell id="tmd_BGIo7YK0RF10_p9E-55" value="" style="endArrow=none;html=1;rounded=0;exitX=0.258;exitY=0.063;exitDx=0;exitDy=0;exitPerimeter=0;" edge="1" parent="tmd_BGIo7YK0RF10_p9E-31" source="tmd_BGIo7YK0RF10_p9E-52" target="tmd_BGIo7YK0RF10_p9E-50">
          <mxGeometry width="50" height="50" relative="1" as="geometry">
            <mxPoint x="280" y="1070" as="sourcePoint" />
            <mxPoint x="330" y="1020" as="targetPoint" />
          </mxGeometry>
        </mxCell>
        <mxCell id="tmd_BGIo7YK0RF10_p9E-57" value="&lt;font style=&quot;font-size: 18px;&quot;&gt;Liberar Cancela&lt;/font&gt;" style="ellipse;whiteSpace=wrap;html=1;" vertex="1" parent="tmd_BGIo7YK0RF10_p9E-31">
          <mxGeometry x="470" y="1160" width="150" height="110" as="geometry" />
        </mxCell>
        <mxCell id="tmd_BGIo7YK0RF10_p9E-53" value="&lt;font style=&quot;font-size: 18px;&quot;&gt;Efetuar Pagamento da fatura&lt;/font&gt;" style="ellipse;whiteSpace=wrap;html=1;" vertex="1" parent="tmd_BGIo7YK0RF10_p9E-31">
          <mxGeometry x="180" y="1070" width="150" height="110" as="geometry" />
        </mxCell>
        <mxCell id="tmd_BGIo7YK0RF10_p9E-56" value="" style="endArrow=none;html=1;rounded=0;exitX=0.953;exitY=0.347;exitDx=0;exitDy=0;exitPerimeter=0;" edge="1" parent="tmd_BGIo7YK0RF10_p9E-31" source="tmd_BGIo7YK0RF10_p9E-53" target="tmd_BGIo7YK0RF10_p9E-52">
          <mxGeometry width="50" height="50" relative="1" as="geometry">
            <mxPoint x="319" y="1052" as="sourcePoint" />
            <mxPoint x="249" y="1019" as="targetPoint" />
          </mxGeometry>
        </mxCell>
        <mxCell id="tmd_BGIo7YK0RF10_p9E-67" value="&lt;font style=&quot;font-size: 14px;&quot;&gt;Include&lt;/font&gt;" style="endArrow=open;endSize=12;dashed=1;html=1;rounded=0;entryX=1;entryY=1;entryDx=0;entryDy=0;" edge="1" parent="tmd_BGIo7YK0RF10_p9E-31" source="tmd_BGIo7YK0RF10_p9E-57" target="tmd_BGIo7YK0RF10_p9E-53">
          <mxGeometry width="160" relative="1" as="geometry">
            <mxPoint x="350" y="1150" as="sourcePoint" />
            <mxPoint x="510" y="1150" as="targetPoint" />
          </mxGeometry>
        </mxCell>
        <mxCell id="tmd_BGIo7YK0RF10_p9E-59" value="&lt;font style=&quot;font-size: 18px;&quot;&gt;Sair do estacionamento&lt;/font&gt;" style="ellipse;whiteSpace=wrap;html=1;" vertex="1" parent="tmd_BGIo7YK0RF10_p9E-31">
          <mxGeometry x="180" y="1330" width="150" height="110" as="geometry" />
        </mxCell>
        <mxCell id="tmd_BGIo7YK0RF10_p9E-68" value="" style="endArrow=none;html=1;rounded=0;exitX=0.905;exitY=0.173;exitDx=0;exitDy=0;exitPerimeter=0;entryX=0.19;entryY=0.902;entryDx=0;entryDy=0;entryPerimeter=0;" edge="1" parent="tmd_BGIo7YK0RF10_p9E-31" source="tmd_BGIo7YK0RF10_p9E-59" target="tmd_BGIo7YK0RF10_p9E-57">
          <mxGeometry width="50" height="50" relative="1" as="geometry">
            <mxPoint x="270" y="1310" as="sourcePoint" />
            <mxPoint x="320" y="1260" as="targetPoint" />
          </mxGeometry>
        </mxCell>
        <mxCell id="tmd_BGIo7YK0RF10_p9E-7" value="&lt;font style=&quot;font-size: 18px;&quot;&gt;Estacionar veiculo&lt;/font&gt;" style="ellipse;whiteSpace=wrap;html=1;" vertex="1" parent="tmd_BGIo7YK0RF10_p9E-31">
          <mxGeometry x="280" y="690" width="150" height="110" as="geometry" />
        </mxCell>
        <mxCell id="gcT7Su7T-spcFD1mGla--12" value="&lt;font style=&quot;font-size: 24px;&quot;&gt;MOTORISTA&lt;/font&gt;" style="shape=umlActor;verticalLabelPosition=bottom;verticalAlign=top;html=1;outlineConnect=0;" vertex="1" parent="1">
          <mxGeometry x="-320" y="385" width="90" height="180" as="geometry" />
        </mxCell>
        <mxCell id="tmd_BGIo7YK0RF10_p9E-3" value="&lt;font style=&quot;font-size: 18px;&quot;&gt;Dirigir até a cancela de entrada&lt;/font&gt;" style="ellipse;whiteSpace=wrap;html=1;" vertex="1" parent="1">
          <mxGeometry x="100" y="-50" width="150" height="110" as="geometry" />
        </mxCell>
        <mxCell id="tmd_BGIo7YK0RF10_p9E-6" value="&lt;font style=&quot;font-size: 18px;&quot;&gt;Registrar entrada&lt;/font&gt;" style="ellipse;whiteSpace=wrap;html=1;" vertex="1" parent="1">
          <mxGeometry x="380" y="-30" width="150" height="110" as="geometry" />
        </mxCell>
        <mxCell id="tmd_BGIo7YK0RF10_p9E-12" value="&lt;font style=&quot;font-size: 18px;&quot;&gt;Alertar vagas disponíveis&lt;/font&gt;" style="ellipse;whiteSpace=wrap;html=1;" vertex="1" parent="1">
          <mxGeometry x="350" y="400" width="150" height="110" as="geometry" />
        </mxCell>
        <mxCell id="tmd_BGIo7YK0RF10_p9E-13" value="&lt;font style=&quot;font-size: 18px;&quot;&gt;Entrar no estacionamento&lt;/font&gt;" style="ellipse;whiteSpace=wrap;html=1;" vertex="1" parent="1">
          <mxGeometry x="270" y="260" width="150" height="110" as="geometry" />
        </mxCell>
        <mxCell id="tmd_BGIo7YK0RF10_p9E-14" value="&lt;font style=&quot;font-size: 18px;&quot;&gt;Liberar cancela&lt;/font&gt;" style="ellipse;whiteSpace=wrap;html=1;" vertex="1" parent="1">
          <mxGeometry x="264" y="100" width="150" height="110" as="geometry" />
        </mxCell>
        <mxCell id="tmd_BGIo7YK0RF10_p9E-17" value="" style="endArrow=none;html=1;rounded=0;exitX=0.02;exitY=0.364;exitDx=0;exitDy=0;entryX=0.947;entryY=0.718;entryDx=0;entryDy=0;exitPerimeter=0;entryPerimeter=0;" edge="1" parent="1" source="tmd_BGIo7YK0RF10_p9E-6" target="tmd_BGIo7YK0RF10_p9E-3">
          <mxGeometry width="50" height="50" relative="1" as="geometry">
            <mxPoint x="380" y="470" as="sourcePoint" />
            <mxPoint x="430" y="420" as="targetPoint" />
            <Array as="points" />
          </mxGeometry>
        </mxCell>
        <mxCell id="tmd_BGIo7YK0RF10_p9E-20" value="" style="endArrow=none;html=1;rounded=0;exitX=0.413;exitY=0.982;exitDx=0;exitDy=0;exitPerimeter=0;" edge="1" parent="1" source="tmd_BGIo7YK0RF10_p9E-6" target="tmd_BGIo7YK0RF10_p9E-14">
          <mxGeometry width="50" height="50" relative="1" as="geometry">
            <mxPoint x="289.9999999999977" y="395" as="sourcePoint" />
            <mxPoint x="430" y="420" as="targetPoint" />
          </mxGeometry>
        </mxCell>
        <mxCell id="tmd_BGIo7YK0RF10_p9E-21" value="" style="endArrow=none;html=1;rounded=0;exitX=0.5;exitY=0;exitDx=0;exitDy=0;" edge="1" parent="1" source="tmd_BGIo7YK0RF10_p9E-13" target="tmd_BGIo7YK0RF10_p9E-14">
          <mxGeometry width="50" height="50" relative="1" as="geometry">
            <mxPoint x="360" y="660" as="sourcePoint" />
            <mxPoint x="430" y="540" as="targetPoint" />
            <Array as="points" />
          </mxGeometry>
        </mxCell>
        <mxCell id="tmd_BGIo7YK0RF10_p9E-22" value="" style="endArrow=none;html=1;rounded=0;entryX=0.5;entryY=1;entryDx=0;entryDy=0;exitX=0.5;exitY=0;exitDx=0;exitDy=0;" edge="1" parent="1" source="tmd_BGIo7YK0RF10_p9E-12" target="tmd_BGIo7YK0RF10_p9E-13">
          <mxGeometry width="50" height="50" relative="1" as="geometry">
            <mxPoint x="380" y="940" as="sourcePoint" />
            <mxPoint x="430" y="890" as="targetPoint" />
          </mxGeometry>
        </mxCell>
        <mxCell id="tmd_BGIo7YK0RF10_p9E-23" value="" style="endArrow=none;html=1;rounded=0;entryX=0.5;entryY=1;entryDx=0;entryDy=0;" edge="1" parent="1" source="tmd_BGIo7YK0RF10_p9E-7" target="tmd_BGIo7YK0RF10_p9E-12">
          <mxGeometry width="50" height="50" relative="1" as="geometry">
            <mxPoint x="380" y="940" as="sourcePoint" />
            <mxPoint x="430" y="890" as="targetPoint" />
          </mxGeometry>
        </mxCell>
        <mxCell id="tmd_BGIo7YK0RF10_p9E-35" value="" style="endArrow=none;html=1;rounded=0;exitX=1;exitY=0.3333333333333333;exitDx=0;exitDy=0;exitPerimeter=0;entryX=0.005;entryY=0.595;entryDx=0;entryDy=0;entryPerimeter=0;" edge="1" parent="1" source="gcT7Su7T-spcFD1mGla--12" target="tmd_BGIo7YK0RF10_p9E-3">
          <mxGeometry width="50" height="50" relative="1" as="geometry">
            <mxPoint x="190" y="360" as="sourcePoint" />
            <mxPoint x="120" y="80" as="targetPoint" />
          </mxGeometry>
        </mxCell>
        <mxCell id="tmd_BGIo7YK0RF10_p9E-37" value="" style="endArrow=none;html=1;rounded=0;exitX=1;exitY=0.3333333333333333;exitDx=0;exitDy=0;exitPerimeter=0;entryX=0;entryY=0.5;entryDx=0;entryDy=0;" edge="1" parent="1" source="gcT7Su7T-spcFD1mGla--12" target="tmd_BGIo7YK0RF10_p9E-13">
          <mxGeometry width="50" height="50" relative="1" as="geometry">
            <mxPoint x="190" y="630" as="sourcePoint" />
            <mxPoint x="300" y="930" as="targetPoint" />
          </mxGeometry>
        </mxCell>
        <mxCell id="tmd_BGIo7YK0RF10_p9E-39" value="" style="endArrow=none;html=1;rounded=0;entryX=0.013;entryY=0.395;entryDx=0;entryDy=0;entryPerimeter=0;exitX=1;exitY=0.3333333333333333;exitDx=0;exitDy=0;exitPerimeter=0;" edge="1" parent="1" source="gcT7Su7T-spcFD1mGla--12" target="tmd_BGIo7YK0RF10_p9E-7">
          <mxGeometry width="50" height="50" relative="1" as="geometry">
            <mxPoint x="-230" y="440" as="sourcePoint" />
            <mxPoint x="314" y="938" as="targetPoint" />
          </mxGeometry>
        </mxCell>
        <mxCell id="tmd_BGIo7YK0RF10_p9E-41" value="&lt;font style=&quot;font-size: 24px;&quot;&gt;SENSOR DE VAGAS&lt;/font&gt;" style="shape=umlActor;verticalLabelPosition=bottom;verticalAlign=top;html=1;outlineConnect=0;" vertex="1" parent="1">
          <mxGeometry x="820" y="90" width="90" height="180" as="geometry" />
        </mxCell>
        <mxCell id="tmd_BGIo7YK0RF10_p9E-44" value="&lt;font style=&quot;font-size: 24px;&quot;&gt;SISTEMA CAIXA&lt;/font&gt;" style="shape=umlActor;verticalLabelPosition=bottom;verticalAlign=top;html=1;outlineConnect=0;" vertex="1" parent="1">
          <mxGeometry x="980" y="460" width="90" height="180" as="geometry" />
        </mxCell>
        <mxCell id="tmd_BGIo7YK0RF10_p9E-47" value="&lt;font style=&quot;font-size: 18px;&quot;&gt;Emitir fatura&lt;/font&gt;" style="ellipse;whiteSpace=wrap;html=1;" vertex="1" parent="1">
          <mxGeometry x="677" y="490" width="150" height="110" as="geometry" />
        </mxCell>
        <mxCell id="tmd_BGIo7YK0RF10_p9E-54" value="" style="endArrow=none;html=1;rounded=0;entryX=0.423;entryY=0.02;entryDx=0;entryDy=0;entryPerimeter=0;" edge="1" parent="1" target="tmd_BGIo7YK0RF10_p9E-50">
          <mxGeometry width="50" height="50" relative="1" as="geometry">
            <mxPoint x="-220" y="450" as="sourcePoint" />
            <mxPoint x="292" y="763" as="targetPoint" />
          </mxGeometry>
        </mxCell>
        <mxCell id="tmd_BGIo7YK0RF10_p9E-60" value="" style="endArrow=none;html=1;rounded=0;entryX=0.265;entryY=0.051;entryDx=0;entryDy=0;entryPerimeter=0;" edge="1" parent="1" target="tmd_BGIo7YK0RF10_p9E-53">
          <mxGeometry width="50" height="50" relative="1" as="geometry">
            <mxPoint x="-220" y="450" as="sourcePoint" />
            <mxPoint x="173" y="792" as="targetPoint" />
          </mxGeometry>
        </mxCell>
        <mxCell id="tmd_BGIo7YK0RF10_p9E-61" value="" style="endArrow=none;html=1;rounded=0;" edge="1" parent="1" target="tmd_BGIo7YK0RF10_p9E-59">
          <mxGeometry width="50" height="50" relative="1" as="geometry">
            <mxPoint x="-220" y="450" as="sourcePoint" />
            <mxPoint x="130" y="1036" as="targetPoint" />
          </mxGeometry>
        </mxCell>
        <mxCell id="tmd_BGIo7YK0RF10_p9E-62" value="" style="endArrow=none;html=1;rounded=0;exitX=1;exitY=0.5;exitDx=0;exitDy=0;" edge="1" parent="1" source="tmd_BGIo7YK0RF10_p9E-47" target="tmd_BGIo7YK0RF10_p9E-44">
          <mxGeometry width="50" height="50" relative="1" as="geometry">
            <mxPoint x="600" y="910" as="sourcePoint" />
            <mxPoint x="650" y="860" as="targetPoint" />
          </mxGeometry>
        </mxCell>
        <mxCell id="tmd_BGIo7YK0RF10_p9E-64" value="&lt;font style=&quot;font-size: 14px;&quot;&gt;Include&lt;/font&gt;" style="endArrow=open;endSize=12;dashed=1;html=1;rounded=0;entryX=0;entryY=1;entryDx=0;entryDy=0;" edge="1" parent="1" source="tmd_BGIo7YK0RF10_p9E-52" target="tmd_BGIo7YK0RF10_p9E-47">
          <mxGeometry x="-0.0003" width="160" relative="1" as="geometry">
            <mxPoint x="540" y="890" as="sourcePoint" />
            <mxPoint x="530" y="950" as="targetPoint" />
            <mxPoint as="offset" />
          </mxGeometry>
        </mxCell>
        <mxCell id="tmd_BGIo7YK0RF10_p9E-65" value="&lt;font style=&quot;font-size: 14px;&quot;&gt;Include&lt;/font&gt;" style="endArrow=open;endSize=12;dashed=1;html=1;rounded=0;entryX=0.45;entryY=-0.019;entryDx=0;entryDy=0;entryPerimeter=0;" edge="1" parent="1" source="tmd_BGIo7YK0RF10_p9E-6" target="tmd_BGIo7YK0RF10_p9E-47">
          <mxGeometry x="-0.0003" width="160" relative="1" as="geometry">
            <mxPoint x="446" y="953" as="sourcePoint" />
            <mxPoint x="542" y="904" as="targetPoint" />
            <Array as="points" />
            <mxPoint as="offset" />
          </mxGeometry>
        </mxCell>
        <mxCell id="tmd_BGIo7YK0RF10_p9E-69" value="" style="endArrow=none;html=1;rounded=0;entryX=0;entryY=0.3333333333333333;entryDx=0;entryDy=0;entryPerimeter=0;" edge="1" parent="1" source="tmd_BGIo7YK0RF10_p9E-12" target="tmd_BGIo7YK0RF10_p9E-41">
          <mxGeometry width="50" height="50" relative="1" as="geometry">
            <mxPoint x="260" y="500" as="sourcePoint" />
            <mxPoint x="310" y="450" as="targetPoint" />
          </mxGeometry>
        </mxCell>
        <mxCell id="tmd_BGIo7YK0RF10_p9E-70" value="&lt;font style=&quot;font-size: 18px;&quot;&gt;Registrar veiculo estacionado&amp;nbsp;&lt;/font&gt;" style="ellipse;whiteSpace=wrap;html=1;" vertex="1" parent="1">
          <mxGeometry x="470" y="490" width="150" height="110" as="geometry" />
        </mxCell>
        <mxCell id="tmd_BGIo7YK0RF10_p9E-71" value="&lt;font style=&quot;font-size: 14px;&quot;&gt;Include&lt;/font&gt;" style="endArrow=open;endSize=12;dashed=1;html=1;rounded=0;entryX=0.973;entryY=0.364;entryDx=0;entryDy=0;entryPerimeter=0;exitX=0;exitY=1;exitDx=0;exitDy=0;" edge="1" parent="1" source="tmd_BGIo7YK0RF10_p9E-70" target="tmd_BGIo7YK0RF10_p9E-7">
          <mxGeometry width="160" relative="1" as="geometry">
            <mxPoint x="210" y="590" as="sourcePoint" />
            <mxPoint x="370" y="590" as="targetPoint" />
          </mxGeometry>
        </mxCell>
        <mxCell id="tmd_BGIo7YK0RF10_p9E-72" value="" style="endArrow=none;html=1;rounded=0;entryX=0;entryY=0.3333333333333333;entryDx=0;entryDy=0;entryPerimeter=0;exitX=0.664;exitY=0.001;exitDx=0;exitDy=0;exitPerimeter=0;" edge="1" parent="1" source="tmd_BGIo7YK0RF10_p9E-70" target="tmd_BGIo7YK0RF10_p9E-41">
          <mxGeometry width="50" height="50" relative="1" as="geometry">
            <mxPoint x="505" y="440" as="sourcePoint" />
            <mxPoint x="830" y="160" as="targetPoint" />
          </mxGeometry>
        </mxCell>
      </root>
    </mxGraphModel>
  </diagram>
</mxfile>
